<svg xmlns="http://www.w3.org/2000/svg" viewBox="0 0 231 231"><path d="M33.83,33.83a115.5,115.5,0,1,1,0,163.34,115.49,115.49,0,0,1,0-163.34Z" style="fill:#1d8c00;"/><path d="m115.5 51.75a63.75 63.75 0 0 0-10.5 126.63v14.09a115.5 115.5 0 0 0-53.729 19.027 115.5 115.5 0 0 0 128.46 0 115.5 115.5 0 0 0-53.729-19.029v-14.084a63.75 63.75 0 0 0 53.25-62.881 63.75 63.75 0 0 0-63.65-63.75 63.75 63.75 0 0 0-0.09961 0z" style="fill:#755227;"/><path d="m141.75 195a114.79 114.79 0 0 1 38 16.5 115.53 115.53 0 0 1-128.46 0 114.79 114.79 0 0 1 38-16.5c0 10.76 11.75 19.48 26.25 19.48s26.25-8.72 26.25-19.48z" style="fill:#00650b;"/><path d="m92.502 194.27v0.70391c0 4.3033 2.4373 8.2583 6.3807 11.183 4.2199 3.1204 10.106 5.0508 16.661 5.0508 6.548 0 12.434-1.9303 16.654-5.0508 3.9434-2.9245 6.388-6.8795 6.388-11.183v-0.67489c1.0768 0.21771 2.1463 0.44994 3.2158 0.69666h-7e-3c1.0695 0.24672 2.1318 0.50798 3.1867 0.791-0.27648 6.103-3.6524 11.553-8.9708 15.493-5.2821 3.9114-12.521 6.328-20.466 6.328-7.9449 0-15.184-2.4165-20.474-6.328-5.333-3.9477-8.7089-9.4194-8.9708-15.544 1.055-0.27577 2.1099-0.53702 3.1722-0.78376 1.0695-0.23947 2.1463-0.46443 3.2304-0.68213z" style="fill:#62ce5a;"/><path d="m157.79 67.5a61.31 61.31 0 0 1-42.79 17.43h-55.7c18.16-37.74 68.27-46.85 98.49-17.43z" style="fill:#531148;"/><path d="m122.93 7.0078c-10.503-0.15729-21.09 1.6448-29.545 5.4316-17.141 7.8999-32.169 23.297-43.973 38.779-5.1703 6.8631-8.7779 13.46-8.1855 18.395 0.93114 12.312 10.372 26.483 11.068 36.9 15.663-72.081 105.99-70.452 124.91-7.0525l4e-3 0.0156c5.616-10.926 8.0682-20.188 8.352-27.653 0.43654-15.607-7.8088-21.149-21.735-28.249 1.7934-3.7704 1.7273-7.5023 2.0625-10.154-0.79964-7.8568-3.6796-13.51-10.43-17.758-5.9434-3.7404-13.06-6.0867-18.463-7.2266-4.5319-0.87895-9.2901-1.3562-14.064-1.4277z" style="fill:#531148;"/><path d="m42.426 75.338c0.52158 18.689 10.557 74.338-18.115 101.25 12.38 10.603 28.352 19.061 46.025 24.594 11.032-4.6874 22.88-7.4147 34.817-8.5046l0.0633-14.477c-22.49-4.3813-40.766-18.898-48.862-39.967-8.096-21.07-4.7931-44.72 9.2478-62.393zm124.67 2.7207c7.8997 10.886 11.743 24.64 11.787 37.441-0.36632 30.178-22.389 57.576-53.12 62.708l0.0238 14.471c12.282 1.1216 24.518 3.9888 35.825 8.9128 15.488-5.1448 30.007-13.325 42.396-25.043-13.136-22.051-23.282-63.045-18.694-101.55z" style="fill:#531148;"/><path d="m143.61 46.383c-11.639 0.12482-20.998 1.8906-20.998 1.8906l-9 3.5059c0.63003-0.0191 1.2603-0.0289 1.8906-0.0293h0.0996c35.169 0.055 60.959 27.235 63.283 63.383 7.4e-4 31.157-22.742 57.213-53.106 63.079l-0.0216 14.498c11.567 1.0563 23.154 3.6067 33.887 8.0463 35.952-15.315 55.082-52.303 36.709-68.279-5.018-7.9035-10.44-15.409-9.5544-23.03 5.0545-50.452 0.39626-63.561-43.189-63.064zm-69.966 21.09c-15.286 3.244-17.096 3.73-31.734 6.6953 3.0304 13.081 3.0583 22.274 1.2085 30.012-3.8004 11.361-8.9712 19.787-12.286 28.764-6.8823 22.459-2.9157 31.982 12.093 46.165 8.6595 8.0693 19.861 16.209 30.939 20.647 2.669-1.0316 5.3729-1.9628 8.106-2.792 7.4979-2.275 15.388-3.6535 23.206-4.3673l0.0433-14.393c-23.933-4.5937-44.283-21.98-50.77-45.817-6.3319-23.265 0.51104-48.752 19.195-64.914z" style="fill:none;"/><line x1="85.29" x2="85.29" y1="98.73" y2="109.79" style="fill:none;stroke-linecap:round;stroke-linejoin:round;stroke-width:8.7999px;stroke:black;"/><path d="m108.28 72.16h62.18c9.19 0 13.32 1.21 14.71 8.52 3.61 18.95 2.2 33.49-0.44 43.75a65.07 65.07 0 0 1-5.89 14.78 73.52 73.52 0 0 1-7.06 10.26c-1.8 2.27-5.17 1.21-4.19-1.09 0.14-0.47 0.27-1 0.4-1.48a14.29 14.29 0 0 0 0.52-6.62 12.52 12.52 0 0 0-3.88-6.3c-4.17-3.9-12.81-8.71-32.53-13.66-6.4-1.6-10.69-2.24-11.76-2.79a7.08 7.08 0 0 1-3.85-6.31v-9c0-2.39 0.18-4.55-1.56-6.57s-4.16-2.13-6.65-2.14a6 6 0 0 1-6-6v-9.35a6 6 0 0 1 6-6z" style="fill:black;"/><path d="m135.9 98.73v9.27m15.22-9.29v9.29" style="fill:none;stroke-linecap:round;stroke-linejoin:round;stroke-width:7.7998px;stroke:aqua;"/><path d="m136.21 147.09a21.77 21.77 0 0 1-40.13 0z" style="fill:#d2001b;stroke-linecap:round;stroke-linejoin:round;stroke-width:3.4999px;stroke:none;"/></svg>