<svg xmlns="http://www.w3.org/2000/svg" viewBox="0 0 231 231"><path d="M33.83,33.83a115.5,115.5,0,1,1,0,163.34,115.49,115.49,0,0,1,0-163.34Z" style="fill:#DFFF00;"/><path d="m115.5 51.75a63.75 63.75 0 0 0-10.5 126.63v14.09a115.5 115.5 0 0 0-53.729 19.027 115.5 115.5 0 0 0 128.46 0 115.5 115.5 0 0 0-53.729-19.029v-14.084a63.75 63.75 0 0 0 53.25-62.881 63.75 63.75 0 0 0-63.65-63.75 63.75 63.75 0 0 0-0.09961 0z" style="fill:#f2c280;"/><path d="m141.74 195a114.93 114.93 0 0 1 37.912 16.45l0.07 0.05c-1.17 0.79-2.3601 1.55-3.5601 2.29a115.55 115.55 0 0 1-120.95 0.21q-2.0001-1.23-4.0002-2.54a114.79 114.79 0 0 1 38.002-16.5 116.21 116.21 0 0 1 15.791-2.49v-14.57c1.32 0.22 2.6501 0.39 4.0002 0.51 2.0001 0.19 4.0002 0.28 6.1202 0.29a64.333 64.33 0 0 0 8.8804-0.62c0.67003-0.09 1.3401-0.2 2.0001-0.31v14.69a118 118 0 0 1 15.741 2.54z" style="fill:#fff;"/><path d="m79.292 212a3.4601 3.46 0 0 0 3.8902 5.07 3.3801 3.38 0 0 0 2.1001-1.61 3.4701 3.47 0 0 0-1.2801-4.72 3.4201 3.42 0 0 0-2.6201-0.34 3.5101 3.51 0 0 0-2.0901 1.6zm60.122 0.46a3.4901 3.49 0 0 0 1.21 4.7h0.06a3.4601 3.46 0 0 0 4.7202-1.27l0.07-0.13a3.4601 3.46 0 0 0-1.34-4.6 3.4601 3.46 0 0 0-2.5801-0.32 3.5301 3.53 0 0 0-2.1001 1.61zm9.8004 5.7 5.8602 5.87c-1.39 0.5-2.7901 1-4.2102 1.44l-4.4802-4.47a7.5203 7.52 0 0 1-1.9401 0.81 7.8303 7.83 0 0 1-6.0002-0.79 7.8703 7.87 0 0 1-2.9201-10.69v-0.07a7.8903 7.89 0 0 1 10.77-2.88l0.12 0.07a7.8603 7.86 0 0 1 2.7901 10.62v0.07zm-37.701-2.36-9.5004 9.51v4.9c-1.35-0.16-2.6801-0.33-4.0002-0.54v-6l0.58002-0.58 10.1-10.09a7.8703 7.87 0 1 1 2.8401 2.86zm7.3203-5.91a3.4601 3.46 0 1 0-1.6101 2.1 3.3801 3.38 0 0 0 1.6101-2.1zm-29.741 7.82 3.0901 3.1 0.59002 0.59v7.36c-1.3401-0.26-2.6801-0.55-4.0002-0.87v-4.84l-2.5101-2.51a7.5203 7.52 0 0 1-1.9401 0.81 7.8803 7.88 0 1 1 1.9101-14.43 7.8703 7.87 0 0 1 2.8901 10.75z" style="fill:#000;"/><path d="m32.902 67.662c-0.36295 1.7227-6.2342 30.695 5.6133 52.596 4.5843 8.4743 9.0081 13.239 12.75 15.893a67.7 67.7 0 0 1-3.4688-21.35 67.7 67.7 0 0 1 2.332-17.658c-4.4914-2.4646-10.868-6.9012-13.834-13.52-4.1626-9.285-3.6155-14.673-3.3926-15.961zm165.19 0c0.22292 1.2882 0.77005 6.6759-3.3926 15.961-2.9664 6.6183-9.3426 11.055-13.834 13.52a67.7 67.7 0 0 1 2.332 17.658 67.7 67.7 0 0 1-3.4688 21.35c3.7419-2.6532 8.1657-7.4183 12.75-15.893 11.847-21.9 5.9762-50.873 5.6133-52.596z" style="fill:#a21d00;"/><path d="m115.73 13.191c-7.3787-0.13351-13.509 5.7888-13.631 13.168-0.10128 5.8827 3.4508 10.518 8.0566 12.52 1.061 0.46115 2.1869 0.78009 3.3418 0.95703v8.4291c0.66778-0.02035 1.3358-0.03077 2.0039-0.03125 0.66547-9e-5 1.3309 0.0097 1.9961 0.0293v-8.4115c2.6002-0.38406 5.1586-1.5484 7.3086-3.625 4.2322-4.0878 4.9991-9.8755 3.1582-14.549-1.8407-4.6726-6.3502-8.3834-12.232-8.4863z" style="fill:#fff;"/><path d="m83.527 103.98v10h10v-10h-10zm53.945 0v10h10v-10h-10z" style="fill:none;"/><path d="m56.621 94.906v11.688h5.3418v6.4922h5.3418v6.1055h5.3223v6.2324h26.846v-6.2324h5.3047v-6.1055h5.1445v-6.0039h11.154v6.0039h5.1446v6.1055h5.3066v6.2324h26.846v-6.2324h5.3203v-6.1055h5.3438v-6.4922h5.3418v-11.688z" style="fill:#000;"/><path d="m67.387 100.65v5.9394h5.1992v-5.9394zm5.1992 5.9394v6.4922h5.4238v-6.4922zm5.4238 0h5.1992v-5.9394h-5.1992zm5.1992 0v6.4922h5.4258v-6.4922zm5.4258 6.4922v6.1055h5.1426v-6.1055zm-10.625 0v6.1055h5.1445v-6.1055zm48.281-12.432v5.9394h5.1992v-5.9394zm5.1992 5.9394v6.4922h5.4238v-6.4922zm5.4238 0h5.1992v-5.9394h-5.1992zm5.1992 0v6.4922h5.4258v-6.4922zm5.4258 6.4922v6.1055h5.1426v-6.1055zm-10.625 0v6.1055h5.1445v-6.1055z" style="fill:#fff;"/><path d="m118.05 148.38c-1.5064 0.59192-2.595 2.0264-2.6191 3.9863-0.0574 1.3977 0.53421 3.5611 3.6758 5.7949 8.0544 4.9446 21.507 3.6862 21.255-7.1658-4.664 4.8219-10.021 5.6377-14.773 0.73907-1.2328-1.1599-2.3694-2.4032-3.9294-3.1408-1.0946-0.50424-2.2257-0.61071-3.6096-0.21337z" style="fill:#50230a;"/><path d="m133.61 154.93c3.0731-0.48816 5.5702-2.8457 5.4438-4.5059-0.47801-4.8311-5.7317-3.0917-4.3369-0.31405-2.8103-1.4445-1.8343-3.8862 0.50427-4.7324 2.0509-0.79942 5.0937 0.34314 6.2002 2.6376 2.2229 7.3422-3.4376 11.68-10.384 12.561z" style="fill:#50230a;"/><path d="m112.81 148.38c1.5064 0.59192 2.595 2.0264 2.6191 3.9863 0.0574 1.3977-0.53421 3.5611-3.6758 5.7949-8.0544 4.9446-21.507 3.6862-21.255-7.1658 4.664 4.8219 10.021 5.6377 14.773 0.73907 1.2328-1.1599 2.3694-2.4032 3.9294-3.1408 1.0946-0.50424 2.2257-0.61071 3.6096-0.21337z" style="fill:#50230a;"/><path d="m97.252 154.93c-3.0731-0.48816-5.5702-2.8457-5.4438-4.5059 0.47801-4.8311 5.7317-3.0917 4.3369-0.31405 2.8103-1.4445 1.8343-3.8862-0.50427-4.7324-2.0509-0.79942-5.0937 0.34314-6.2002 2.6376-2.2229 7.3422 3.4376 11.68 10.384 12.561z" style="fill:#50230a;"/></svg>