<svg xmlns="http://www.w3.org/2000/svg" viewBox="0 0 231 231"><path d="M33.83,33.83a115.5,115.5,0,1,1,0,163.34,115.49,115.49,0,0,1,0-163.34Z" style="fill:#FFC107;"/><path d="m115.5 51.75a63.75 63.75 0 0 0-10.5 126.63v14.09a115.5 115.5 0 0 0-53.729 19.027 115.5 115.5 0 0 0 128.46 0 115.5 115.5 0 0 0-53.729-19.029v-14.084a63.75 63.75 0 0 0 53.25-62.881 63.75 63.75 0 0 0-63.65-63.75 63.75 63.75 0 0 0-0.09961 0z" style="fill:#fff;"/><path d="m116 203.13c-0.12 0-0.25 0.12-0.49 0.12s-0.25-0.12-0.49-0.12zm-27.29-8c0.87-0.25 1.72-0.47 2.56-0.69a32.37 32.37 0 0 0 0.3 8.57 21.5 21.5 0 0 0 7 6.88c6.41-6 16.8-6.64 16.8-6.64s10.5 0.58 17 6.69a21.61 21.61 0 0 0 6.93-6.66 32.34 32.34 0 0 0 0.35-8.84l2.13 0.56a114.79 114.79 0 0 1 38 16.5 115.53 115.53 0 0 1-128.46 0 114.64 114.64 0 0 1 37.38-16.37z" style="fill:#000;"/><path d="m126.15 206-3.92 7.83h-13.46l-3.92-7.83a36.59 36.59 0 0 1 10.65-2.7 35.66 35.66 0 0 1 10.65 2.7z" style="fill:#ff2500;"/><path d="m124.54 230.65-2.18-16.74h-13.47l-2.19 16.76c2.9 0.22 5.84 0.33 8.8 0.33s6.06-0.12 9-0.35z" style="fill:#ff2500;"/><path d="m134.84 186s0.86 9.8-19.34 17.26c0 0 15.79 0.86 20.57 11.76 0.12 0.49 9.3-23.26-1.23-29z" style="fill:#fff;"/><path d="m96.16 186c-10.41 5.76-1.35 29.39-1.1 29 4.65-10.78 20.56-11.76 20.56-11.76-20.32-7.45-19.46-17.24-19.46-17.24z" style="fill:#fff;"/><path d="m108.37 22.019c-6.2698-12.829-17.151-13.396-18.949 1.1769-11.448-9.4583-26.021-4.483-20.361 12.422-12.251-7.9282-24.919 1.7761-17.076 20.853-27.08 2.3646-22.715 24.726-10.111 31.435-9.9002 3.3566-10.701 9.4006-8.464 14.497 2.6574 4.7842 9.0126 6.4737 11.545 9.6519-6.624 0.59419-8.4112 5.6011-5.7404 9.5192 1.6896 2.4787 5.2756 4.2218 8.5971 5.5455 1.0485 0.40658 3.702 1.2732 3.9053 2.4181 0.18744 1.2156-6.7884 3.0055-5.7281 5.2612 0.60648 1.4227 1.7764 2.7151 2.6466 3.7156 1.2807 1.6595 10.755 8.0351 9.4583 4.2049-1.0271-3.7234-2.2148-7.4682-3.1456-11.192-1.1662-5.3069-1.7868-10.721-1.102-16.156 1.4223-5.455 5.069-4.4265 7.7837-8.3588 3.5264-5.7505 2.0296-11.614 2.124-13.575 0.107-1.7868 1.5407-1.1876 3.1884-1.4337 4.3868-0.64196 7.0081-2.1185 8.8377-6.2698 0.77035-1.9259 0.62057-9.7578 0.52426-11.78 0.36378-4.6328 4.1835 0 6.548 0.64196 3.2633 0.88805 6.8797 0.21399 9.0731-2.5037 1.7547-2.3753 2.0864-2.8888 4.6114-0.80245 2.6856 2.2148 4.0979 3.1349 7.6929 3.274 5.5637 0.20329 8.7735-6.2698 11.32-5.6386 3.5201 0.87735 3.6057 5.4567 10.261 4.8682 2.386-0.20329 3.8304-0.86665 5.4032-2.6428 0.88805-0.99505 1.958-2.5037 3.4345-2.6214 1.4658-0.1177 2.3218 2.3646 3.0065 3.4452 1.1926 2.6755 4.0295 3.6513 6.2377 3.3168 1.958-0.17119 3.854-1.4115 5.4268-2.4707 0.99679-0.66102 1.8284-0.81128 1.9256 0.2071 0.29592 2.2271 0.0862 7.7025 0.1596 8.4821 0.10556 8.4609 5.37 10.569 13.223 10.333-0.31871 3.7464 0.0583 11.28 5.4353 14.562 3.9481 2.7604 6.6657 1.2732 6.7299 7.8534 7e-3 6.1914-0.43693 13.061-1.2946 18.189-0.69547 4.0444-1.2412 6.4838-2.5251 10.378-0.64196 1.9152-0.81315 1.9687 1.4123 1.0699 7.1472-3.1456 10.539-11.48 8.3562-18.842-0.43869-2.0436 0.84525-1.7226 2.8781-2.6106 9.5248-4.2363 8.1264-11.335-0.75967-14.273 11.988-3.0926 13.886-8.9002 6.6871-15.375 7.3077-5.9168 3.6378-16.177-2.8032-16.991 12.422-7.0937 5.7349-22.062-5.1036-18.499 4.1728-12.037-5.5637-26.203-21.121-16.894 6.9653-11.373 2.065-22.661-12.101-10.785-3.4559-18.382-15.14-16.584-23.902-5.018 0.09435-20.075-16.001-17.42-18.146-2.5892z" style="fill:#000;"/><path d="m5.4353 80.502c7.4468 9.1373 15.632 8.8912 15.632 8.8912s-6.0772 3.7983-6.8369 9.8755c-0.75966 6.088 4.5579 9.6295 8.0994 10.646 3.5522 1.0058 7.0937-2.7925 7.0937-2.7925s-5.8312 10.646-1.5193 15.964c4.3012 5.3176 11.908 3.0386 11.908 3.0386s-5.3283 10.132 1.0057 14.187c5.8312 3.7234 18.542 7.6715 20.511 8.2706-6.0666-9.7472-9.576-21.249-9.576-33.575v-0.0428c0-35.201 28.546-63.747 63.747-63.747 35.212 0 63.758 28.546 63.758 63.747 0 12.476-3.5843 24.116-9.7899 33.949h0.53496s13.931-1.0057 16.21-9.3727c2.279-8.3562 0.75967-9.8756 0.75967-9.8756s10.635 2.0329 13.417-7.5966l2.7926-9.6295s10.132 0 10.892-7.083c0.75963-7.0937-7.0295-12.411-7.0295-12.411s11.459 0.82385 14.498-10.453c1.0164-3.7555 0.83456-8.2171 0.1391-12.497-17.665-41.161-58.569-69.995-106.18-69.995-30.632 0-60.034 12.187-81.679 33.831v0.0107c-13.171 13.171-22.833 29.22-28.386 46.66z" style="fill:#000;"/><path d="m161.73 86.016h-92.51c-3.37 0-6.0001 2.3998-6.0001 5.2999v28.45c0 3.0002 2.74 5.3001 6.0001 5.3001h32.36c7.0901 0 7.44-19.43 13.82-19.43s6.8801 19.44 13.83 19.44h32.36c3.37 0 5.9999-2.4 5.9999-5.3001v-28.46c0.14043-2.9001-2.6-5.2999-5.9-5.2999z" style="fill:#581b1b;"/><path d="m161.73 86.016h-92.51c-3.37 0-6.0001 2.3998-6.0001 5.2999v28.45l104.55-28.45c0-2.9001-2.74-5.2999-5.9999-5.2999z" style="fill:#FF8B8B;"/><path d="m161.73 86.016h-92.51c-3.37 0-6.0001 2.3998-6.0001 5.2999v28.45c0 3.0002 2.74 5.3001 6.0001 5.3001h32.36c7.0901 0 7.44-19.43 13.82-19.43s6.8801 19.44 13.83 19.44h32.36c3.37 0 5.9999-2.4 5.9999-5.3001v-28.46c0.14043-2.9001-2.6-5.2999-5.9-5.2999z" style="fill:none;stroke-linecap:round;stroke-linejoin:round;stroke-width:4.0026px;stroke:#000;"/><path d="m100.35 143.85a7.67 7.67 0 0 0 7.58 7.7v0a7.66 7.66 0 0 0 7.57-7.7 7.66 7.66 0 0 0 7.57 7.7v0a7.67 7.67 0 0 0 7.58-7.7" style="fill:none;stroke-linecap:round;stroke-linejoin:round;stroke-width:6.3998px;stroke:#000;"/></svg>