<svg xmlns="http://www.w3.org/2000/svg" viewBox="0 0 231 231"><path d="M33.83,33.83a115.5,115.5,0,1,1,0,163.34,115.49,115.49,0,0,1,0-163.34Z" style="fill:#b3003e;"/><path d="m115.5 51.75a63.75 63.75 0 0 0-10.5 126.63v14.09a115.5 115.5 0 0 0-53.729 19.027 115.5 115.5 0 0 0 128.46 0 115.5 115.5 0 0 0-53.729-19.029v-14.084a63.75 63.75 0 0 0 53.25-62.881 63.75 63.75 0 0 0-63.65-63.75 63.75 63.75 0 0 0-0.09961 0z" style="fill:#dbc97f;"/><path d="m141.75 195c13.563 3.1499 26.439 8.7409 38 16.5-38.873 26.001-89.587 26.001-128.46 0 11.561-7.7591 24.437-13.35 38-16.5 8.4869 8.8011 26.21 25.619 26.21 25.619s17.603-16.972 26.25-25.619z" style="fill:#000;"/><path d="m109 230.81 1.6836-14.33h9.6328l1.6836 14.33c-2.16 0.12-4.33 0.19-6.51 0.19s-4.35-0.07-6.51-0.19z" style="fill:none;"/><path d="m124.17 210.6h-17.349v5.53a3.8828 3.29 0 0 0 3.8828 3.29h9.583a3.8828 3.29 0 0 0 3.8828-3.29z" style="fill:none;"/><path d="m140.57 190.36-25.066 20.245c5.9686 3.2455 11.597 7.0814 16.8 11.45 1.5989 1.3338 3.9762 1.1189 5.31-0.48 0.21005-0.25749 0.38802-0.53956 0.52999-0.84l10.826-23.805-4-6c-0.90256-1.351-2.7298-1.7137-4.08-0.81-0.11612 0.0786-0.22641 0.16549-0.33 0.26z" style="fill:none;"/><path d="m90.434 190.36 25.066 20.245c-5.9686 3.2455-11.597 7.0814-16.8 11.45-1.5989 1.3338-3.9762 1.1189-5.31-0.48-0.21005-0.25749-0.38802-0.53956-0.52999-0.84l-10.826-23.805 4-6c0.90256-1.351 2.7298-1.7137 4.08-0.81 0.11612 0.0786 0.22641 0.16549 0.33 0.26z" style="fill:none;"/><path d="m30.622 70.381c2.0971-3.9374 4.6649-7.9604 7.6822-12.037 3.0172-4.0765 6.0987-7.6929 9.2229-10.817l22.897 22.897c-4.4402 4.4403-8.2278 9.5439-11.213 15.14z" style="fill:none;"/><path d="m160.58 70.423 22.907-22.897c3.1242 3.1242 6.2056 6.7406 9.2229 10.817 3.0065 4.0765 5.5744 8.0994 7.6715 12.037l-28.578 15.182c-2.9851-5.5958-6.7727-10.689-11.224-15.14z" style="fill:none;"/><path d="m92.411 15.247c3.8197-0.87736 7.6715-1.5407 11.534-1.9794 4.0765-0.46007 7.9282-0.69546 11.555-0.69546 1.53 0 3.1563 0.0428 4.8682 0.1391l1.851 22.255 5.767-21.57c3.1028 0.37449 6.0666 0.86666 8.8912 1.4658l-10.55 49.763c-1.9259-0.41729-3.702-0.70617-5.3176-0.87736-1.423-0.14979-3.2633-0.22468-5.5102-0.22468-2.2362 0-4.237 0.10699-5.981 0.29958-1.9473 0.22469-3.8732 0.55636-5.767 0.99504z" style="fill:#d6f740;"/><path d="m92.411 15.247c1.9152-0.43869 4.023-0.84526 6.3233-1.2304 2.065-0.34238 4.1514-0.62057 6.2698-0.84525l5.1785 50.565c-1.0913 0.10699-2.1827 0.25679-3.2954 0.43868-0.86665 0.14979-1.9152 0.36378-3.1349 0.64196z" style="fill:#516303;"/><path d="m83.527 103.98v10h10v-10h-10zm53.945 0v10h10v-10h-10z" style="fill:#000;"/><path d="m56.621 94.906v11.688h5.3418v6.4922h5.3418v6.1055h5.3223v6.2324h26.846v-6.2324h5.3047v-6.1055h5.1445v-6.0039h11.154v6.0039h5.1446v6.1055h5.3066v6.2324h26.846v-6.2324h5.3203v-6.1055h5.3438v-6.4922h5.3418v-11.688z" style="fill:none;"/><path d="m67.387 100.65v5.9394h5.1992v-5.9394zm5.1992 5.9394v6.4922h5.4238v-6.4922zm5.4238 0h5.1992v-5.9394h-5.1992zm5.1992 0v6.4922h5.4258v-6.4922zm5.4258 6.4922v6.1055h5.1426v-6.1055zm-10.625 0v6.1055h5.1445v-6.1055zm48.281-12.432v5.9394h5.1992v-5.9394zm5.1992 5.9394v6.4922h5.4238v-6.4922zm5.4238 0h5.1992v-5.9394h-5.1992zm5.1992 0v6.4922h5.4258v-6.4922zm5.4258 6.4922v6.1055h5.1426v-6.1055zm-10.625 0v6.1055h5.1445v-6.1055z" style="fill:none;"/><path d="m115.5 131c-17.71 0.65-27 9.41-29.61 23.69-1 5.62-0.43 7.06 2.76 7.17 22.76 0.76 22.23 18.21 26.85 18.89 4.62-0.68 4.09-18.13 26.85-18.89 3.19-0.11 3.79-1.55 2.76-7.17-2.62-14.28-11.9-23-29.61-23.69zm0 29.31c-10 0-18-5-18-11.17s8.08-11.17 18-11.17 18 5 18 11.17-8.08 11.17-18 11.17z" style="fill:#6b0000;"/><path d="m123.54 148.46a11.53 11.53 0 0 1-16.09 0" style="fill:none;stroke-linecap:round;stroke-linejoin:round;stroke-width:6.7998px;stroke:#000;"/></svg>