<?xml version="1.0" standalone="no"?><!DOCTYPE svg PUBLIC "-//W3C//DTD SVG 1.1//EN" "http://www.w3.org/Graphics/SVG/1.1/DTD/svg11.dtd"><svg t="1773215261804" class="icon" viewBox="0 0 1024 1024" version="1.1" xmlns="http://www.w3.org/2000/svg" p-id="28066" xmlns:xlink="http://www.w3.org/1999/xlink" width="200" height="200"><path d="M98.6112 98.4576m107.776 0l175.4112 0q107.776 0 107.776 107.776l0 163.4816q0 107.776-107.776 107.776l-175.4112 0q-107.776 0-107.776-107.776l0-163.4816q0-107.776 107.776-107.776Z" fill="#FC6564" p-id="28067"></path><path d="M98.6112 553.6768m107.776 0l175.4112 0q107.776 0 107.776 107.776l0 163.4816q0 107.776-107.776 107.776l-175.4112 0q-107.776 0-107.776-107.776l0-163.4816q0-107.776 107.776-107.776Z" fill="#FC6564" p-id="28068"></path><path d="M551.7824 553.6768m107.776 0l175.4112 0q107.776 0 107.776 107.776l0 163.4816q0 107.776-107.776 107.776l-175.4112 0q-107.776 0-107.776-107.776l0-163.4816q0-107.776 107.776-107.776Z" fill="#FC6564" p-id="28069"></path><path d="M747.3152 288m-182.3744 0a182.3744 182.3744 0 1 0 364.7488 0 182.3744 182.3744 0 1 0-364.7488 0Z" fill="#F8DEDE" p-id="28070"></path></svg>