<svg xmlns="http://www.w3.org/2000/svg" viewBox="0 0 231 231"><path d="M33.83,33.83a115.5,115.5,0,1,1,0,163.34,115.49,115.49,0,0,1,0-163.34Z" style="fill:#0DC15C;"/><path d="m115.5 51.75a63.75 63.75 0 0 0-10.5 126.63v14.09a115.5 115.5 0 0 0-53.729 19.027 115.5 115.5 0 0 0 128.46 0 115.5 115.5 0 0 0-53.729-19.029v-14.084a63.75 63.75 0 0 0 53.25-62.881 63.75 63.75 0 0 0-63.65-63.75 63.75 63.75 0 0 0-0.09961 0z" style="fill:#ca8628;"/><path d="m141.75 195a114.79 114.79 0 0 1 38 16.5 115.53 115.53 0 0 1-128.46 0 114.79 114.79 0 0 1 38-16.5 115.77 115.77 0 0 1 15.71-2.53v-14.09a63.8 63.8 0 0 0 21 0v14.09a116.6 116.6 0 0 1 15.75 2.53z" style="fill:#000;"/><path d="m60.984 205.66 6.2675 2.2051 3.4074-6.819 2.8018-1.1353-3.9911 7.9907 27.222-3.0857 3.2541-11.739 2.1451-0.2692-3.2833 11.819 20.393-1.6011-14.191-15.945v-2.4379l17.606-5.7274 3.3855-0.473v1.47l-19.167 6.2295 14.731 16.542 19.839-7.7432 3.3636 0.8223-21.371 8.34 20.532 13.842 2.6777-21.687 1.9481 0.5604-2.7726 22.378 0.0584 0.0364 8.5075 4.9923-2.4807 0.85145-6.4718-3.7916-1.2987 6.0622-2.1524 0.53125 1.3425-6.2804-17.037 8.8348-5.0271 0.35661 21.59-11.193-20.962-14.133-7.5006 25.457-2.0721-0.0364 7.6392-25.915-21.05 1.652 9.0109 24.052-1.4155-0.0946-0.49615-0.0437-0.073-7e-3 -0.2043-0.0145-8.3688-22.342-10.127 19.242-1.9846-0.52399 10.514-19.962-26.04 2.9547 13.425 16.418-3.4438-1.0625-12.083-14.781-8.1645 5.9675-1.9043-1.077 8.128-5.9385-6.9898-2.4598 2.3348-1.2881zm92.509-7.2556 14.228 20.093-1.8095 0.89514-15.614-22.043z" style="fill:#00FFFF;"/><path d="m124.22 13.61c-19.783 0-36.945 8.0887-39.695 24.106-15.332 0.23539-31.831 2.7712-41.663 15.782-6.0238 7.9604-7.0402 19.901-6.8476 31.724 0.46007 28.503 10.742 64.228-4.3012 89.714 16.584 5.7777 43.086 10.742 73.59 11.662v-8.6558c-1.851-0.35308-3.6592-0.78105-5.4353-1.2732-30.953-8.4632-50.672-36.635-47.259-68.669 1.5514-10.603 4.6221-19.665 10.025-27.69 5.3818-7.9925 13.267-15.717 23.892-21.41 0.40658 0.72757 1.9901 3.5843 2.4074 4.3012 7.5003 12.775 17.986 23.849 33.157 26.866 12.433 2.4609 23.849 3.4666 36.346 1.1555 4.2584-0.78106 10.667-2.3967 14.851-2.4181 14.861 33.404-1.0806 75.035-40.668 87.457-2.2255 0.70616-4.5258 1.316-6.8904 1.8189 0 2.707-0.0428 5.6493-0.0642 8.5274 23.603-0.72757 48.682-4.0444 72.874-11.234-18.521-32.152 0.81315-89.083-10.036-121.46-9.0731-26.973-38.85-40.315-64.282-40.305z" style="fill:#FFCC00;"/><path d="m33.147 172.32c-2.6535 5.1143-6.088 9.9504-10.1 12.411 7.8427 10.453 17.387 19.516 28.257 26.781 16.038-10.731 35.629-17.055 54-18.606v-9.0089c-30.065-0.94155-56.108-5.8847-72.157-11.577zm164.06 0.55637c-23.731 7.0723-48.361 10.325-71.525 11.042-0.0321 3.1242-0.0535 6.2377-0.0107 9.0517 19.227 1.7226 37.908 7.8534 53.989 18.542 0.0107 0 0.0107 0 0.0214 0.0107 10.731-7.1686 20.179-16.081 27.958-26.374-4.2798-2.3967-7.832-6.9653-10.432-12.272z" style="fill:#FFCC00;"/><path d="m50.02 46.5c-2.9297 1.9143-6.1313 3.8826-10.154 7.9805-14.091 14.359-16.145 27.701-6.1406 44.018 4.2049 6.8583 6.1414 13.706-0.24609 20.5-7.7143 8.1957-21.559 4.2912-21.537 16.061 0.0214 8.613 15.063 7.9178 22.531 13.984 3.7662 3.0707 5.0836 8.3992 2.0664 12.508-4.2156 5.7456-16.006 7.3715-22.629 8.9336 5.8811 10.843 13.45 20.638 22.355 29.033l0.0039 0.0234 0.0059-0.0137c2e-3 2e-3 0.0038 4e-3 0.0059 6e-3 0.0034-0.0112 0.0063-0.0219 0.0098-0.0332 14.775-12.218 20.268-20.965 49.461-28.434-17.404-10.258-30.68-27.122-24.143-35.34 4.4123-5.5444 5.6612-7.8633 6.4062-12.078 2.3582-13.339-10.208-22.335-9.2363-32.715 1.9432-8.2346 11.379-11.173 16.947-15.115 5.4577-3.9082 9.8014-8.7695 10.799-16.918-13.558-4.8896-17.609-5.8617-36.506-12.4zm140.87 19.357c-3.4404-0.91243-23.311 122.43 4.4121 133.14 8.9661-8.5809 16.552-18.584 22.404-29.658 0-0.31029-25.133-3.9922-25.979-14.018-0.10699-1.1769 0.11822-1.4855 0.86718-2.502 6.6764-9.2122 30.716-11.416 29.646-23.496-0.27818-3.1563-4.1617-5.2334-6.7402-6.4531-12.155-5.767-32.942-9.6494-15.031-24.543 9.2122-7.3505 10.43-8.4323 0.59766-14.691-9.4583-6.0238-9.394-11.993-9.7578-16.326-0.0767-0.93035-0.22089-1.4003-0.41992-1.4531z" style="fill:#FFCC00;"/><path d="m133.83 39.909c-11.33 1.393-9.5492 16.204-2e-3 16.643-4.5102 10.717 9.0165 16.181 14.441 8.3125 6.562 8.6765 18.596 0.94751 14.457-8.3125 11.718-1.5381 9.2769-16.099 0-16.643 4.503-10.867-9.4883-16.101-14.457-8.3301-6.8832-9.0411-18.509-0.47321-14.439 8.3301z" style="fill:#ff0000;"/><path d="m153.86 48.222c0-3.0528-2.5184-5.5648-5.5791-5.5648-3.0783 0-5.5793 2.512-5.5793 5.5648 0 3.0703 2.501 5.5648 5.5793 5.5648 3.0606 0 5.5791-2.4946 5.5791-5.5648z" style="fill:yellow;"/><path d="m70.959 94.985h35.031c2.4086 1e-5 4.3612 1.9523 4.3612 4.3606l-2.5864 17.511c-0.3515 2.3799-1.7218 4.3606-3.8457 4.3606h-30.9c-2.1239-1e-5 -3.8457-1.9523-3.8457-4.3606l-2.5864-17.511c1e-5 -2.4082 1.9526-4.3606 4.3612-4.3606z" style="fill:#000;stroke-linecap:round;stroke-linejoin:round;stroke-width:3.0045px;stroke:#000;"/><path d="m160.05 94.985h-35.031c-2.4086 1e-5 -4.3612 1.9523-4.3612 4.3606l2.5864 17.511c0.35149 2.3799 1.7218 4.3606 3.8457 4.3606h30.9c2.1239-1e-5 3.8457-1.9523 3.8457-4.3606l2.5864-17.511c-1e-5 -2.4082-1.9526-4.3606-4.3612-4.3606z" style="fill:#000;stroke-linecap:round;stroke-linejoin:round;stroke-width:3.0045px;stroke:#000;"/><path d="m90.607 102.35a4.6337 4.6332 0 1 0 4.6892 4.6337 4.6337 4.6332 0 0 0-4.6892-4.6337zm49.72 0a4.6337 4.6332 0 1 0 4.6444 4.6337 4.6337 4.6332 0 0 0-4.6444-4.6337z" style="fill:#000;"/><path d="m70.66 94.985h-11.775" style="fill:none;stroke-linecap:round;stroke-linejoin:round;stroke-width:3.0045px;stroke:#000;"/><path d="m172.13 94.985h-19.484" style="fill:none;stroke-linecap:round;stroke-linejoin:round;stroke-width:3.0045px;stroke:#000;"/><path d="m109.32 106.2c4.2045-2.427 9.3036-1.913 12.353-0.0258" style="fill:none;stroke-linecap:round;stroke-linejoin:round;stroke-width:3.0045px;stroke:#000;"/><path d="m148.33 109.79-5.7626-8.2324" style="fill:none;stroke-linecap:round;stroke-linejoin:round;stroke-width:4;stroke:#fff;"/><path d="m156.27 105-2.403-3.4328" style="fill:none;stroke-linecap:round;stroke-linejoin:round;stroke-width:4;stroke:#fff;"/><path d="m82.748 114.34-8.9489-12.784" style="fill:none;stroke-linecap:round;stroke-linejoin:round;stroke-width:4;stroke:#fff;"/><path d="m91.408 109.79-5.7626-8.2324" style="fill:none;stroke-linecap:round;stroke-linejoin:round;stroke-width:4;stroke:#fff;"/><path d="m100.35 143.85a7.67 7.67 0 0 0 7.58 7.7v0a7.66 7.66 0 0 0 7.57-7.7 7.66 7.66 0 0 0 7.57 7.7v0a7.67 7.67 0 0 0 7.58-7.7" style="fill:none;stroke-linecap:round;stroke-linejoin:round;stroke-width:6.3998px;stroke:#6e1c1c;"/></svg>