<svg xmlns="http://www.w3.org/2000/svg" viewBox="0 0 231 231"><path d="M33.83,33.83a115.5,115.5,0,1,1,0,163.34,115.49,115.49,0,0,1,0-163.34Z" style="fill:#4a3f73;"/><path d="m115.5 51.75a63.75 63.75 0 0 0-10.5 126.63v14.09a115.5 115.5 0 0 0-53.729 19.027 115.5 115.5 0 0 0 128.46 0 115.5 115.5 0 0 0-53.729-19.029v-14.084a63.75 63.75 0 0 0 53.25-62.881 63.75 63.75 0 0 0-63.65-63.75 63.75 63.75 0 0 0-0.09961 0z" style="fill:#ca8628;"/><path d="m141.75 195a114.79 114.79 0 0 1 38 16.5 115.53 115.53 0 0 1-128.46 0 114.79 114.79 0 0 1 38-16.5l15.71 15.75h21z" style="fill:#901e0e;"/><path d="m115.45 211.34-10.55 10.54a2.51 2.51 0 0 1-3.5599 0 2 2 0 0 1-0.26999-0.30994l-18.48-25.4 5.8901-5.8899a2.52 2.52 0 0 1 3.5199-0.0791l23.49 21.14z" style="fill:#ffbe1e;"/><path d="m115.45 211.34 10.55 10.54a2.51 2.51 0 0 0 3.5599 0 2 2 0 0 0 0.26999-0.30994l18.48-25.4-5.8901-5.8899a2.52 2.52 0 0 0-3.4699-0.089l-23.49 21.14z" style="fill:#ffbe1e;"/><path d="m158.41 199.58-10.11-3.2401v29.93q5.1601-1.5299 10.11-3.51zm-75.82 26.66v-29.9l-10.1 3.2401v23.14c3.2901 1.3199 6.67 2.4999 10.1 3.5199z" style="fill:#c55f54;"/><path d="m157.79 67.5a61.31 61.31 0 0 1-42.79 17.43h-55.7c18.16-37.74 68.27-46.85 98.49-17.43z" style="fill:#FFEB3B;"/><path d="m122.93 7.0078c-10.503-0.15729-21.09 1.6448-29.545 5.4316-17.141 7.8999-32.169 23.297-43.973 38.779-5.1703 6.8631-8.7779 13.46-8.1855 18.395 0.93114 12.312 10.372 26.483 11.068 36.9 15.663-72.081 105.99-70.452 124.91-7.0525l4e-3 0.0156c5.616-10.926 8.0682-20.188 8.352-27.653 0.43654-15.607-7.8088-21.149-21.735-28.249 1.7934-3.7704 1.7273-7.5023 2.0625-10.154-0.79964-7.8568-3.6796-13.51-10.43-17.758-5.9434-3.7404-13.06-6.0867-18.463-7.2266-4.5319-0.87895-9.2901-1.3562-14.064-1.4277z" style="fill:#FFEB3B;"/><path d="m42.426 75.338c0.52158 18.689 10.557 74.338-18.115 101.25 12.38 10.603 28.352 19.061 46.025 24.594 11.032-4.6874 22.88-7.4147 34.817-8.5046l0.0633-14.477c-22.49-4.3813-40.766-18.898-48.862-39.967-8.096-21.07-4.7931-44.72 9.2478-62.393zm124.67 2.7207c7.8997 10.886 11.743 24.64 11.787 37.441-0.36632 30.178-22.389 57.576-53.12 62.708l0.0238 14.471c12.282 1.1216 24.518 3.9888 35.825 8.9128 15.488-5.1448 30.007-13.325 42.396-25.043-13.136-22.051-23.282-63.045-18.694-101.55z" style="fill:none;"/><path d="m143.61 46.383c-11.639 0.12482-20.998 1.8906-20.998 1.8906l-9 3.5059c0.63003-0.0191 1.2603-0.0289 1.8906-0.0293h0.0996c35.169 0.055 60.959 27.235 63.283 63.383 7.4e-4 31.157-22.742 57.213-53.106 63.079l-0.0216 14.498c11.567 1.0563 23.154 3.6067 33.887 8.0463 35.952-15.315 55.082-52.303 36.709-68.279-5.018-7.9035-10.44-15.409-9.5544-23.03 5.0545-50.452 0.39626-63.561-43.189-63.064zm-69.966 21.09c-15.286 3.244-17.096 3.73-31.734 6.6953 3.0304 13.081 3.0583 22.274 1.2085 30.012-3.8004 11.361-8.9712 19.787-12.286 28.764-6.8823 22.459-2.9157 31.982 12.093 46.165 8.6595 8.0693 19.861 16.209 30.939 20.647 2.669-1.0316 5.3729-1.9628 8.106-2.792 7.4979-2.275 15.388-3.6535 23.206-4.3673l0.0433-14.393c-23.933-4.5937-44.283-21.98-50.77-45.817-6.3319-23.265 0.51104-48.752 19.195-64.914z" style="fill:#FFEB3B;"/><line x1="85.29" x2="85.29" y1="98.73" y2="109.79" style="fill:none;stroke-linecap:round;stroke-linejoin:round;stroke-width:8.7999px;stroke:black;"/><path d="m108.28 72.16h62.18c9.19 0 13.32 1.21 14.71 8.52 3.61 18.95 2.2 33.49-0.44 43.75a65.07 65.07 0 0 1-5.89 14.78 73.52 73.52 0 0 1-7.06 10.26c-1.8 2.27-5.17 1.21-4.19-1.09 0.14-0.47 0.27-1 0.4-1.48a14.29 14.29 0 0 0 0.52-6.62 12.52 12.52 0 0 0-3.88-6.3c-4.17-3.9-12.81-8.71-32.53-13.66-6.4-1.6-10.69-2.24-11.76-2.79a7.08 7.08 0 0 1-3.85-6.31v-9c0-2.39 0.18-4.55-1.56-6.57s-4.16-2.13-6.65-2.14a6 6 0 0 1-6-6v-9.35a6 6 0 0 1 6-6z" style="fill:#008;opacity:0.67;"/><path d="m135.9 98.73v9.27m15.22-9.29v9.29" style="fill:none;stroke-linecap:round;stroke-linejoin:round;stroke-width:7.7998px;stroke:aqua;"/><path d="m118.05 148.38c-1.5064 0.59192-2.595 2.0264-2.6191 3.9863-0.0574 1.3977 0.53421 3.5611 3.6758 5.7949 8.0544 4.9446 21.507 3.6862 21.255-7.1658-4.664 4.8219-10.021 5.6377-14.773 0.73907-1.2328-1.1599-2.3694-2.4032-3.9294-3.1408-1.0946-0.50424-2.2257-0.61071-3.6096-0.21337z" style="fill:#50230a;"/><path d="m133.61 154.93c3.0731-0.48816 5.5702-2.8457 5.4438-4.5059-0.47801-4.8311-5.7317-3.0917-4.3369-0.31405-2.8103-1.4445-1.8343-3.8862 0.50427-4.7324 2.0509-0.79942 5.0937 0.34314 6.2002 2.6376 2.2229 7.3422-3.4376 11.68-10.384 12.561z" style="fill:#50230a;"/><path d="m112.81 148.38c1.5064 0.59192 2.595 2.0264 2.6191 3.9863 0.0574 1.3977-0.53421 3.5611-3.6758 5.7949-8.0544 4.9446-21.507 3.6862-21.255-7.1658 4.664 4.8219 10.021 5.6377 14.773 0.73907 1.2328-1.1599 2.3694-2.4032 3.9294-3.1408 1.0946-0.50424 2.2257-0.61071 3.6096-0.21337z" style="fill:#50230a;"/><path d="m97.252 154.93c-3.0731-0.48816-5.5702-2.8457-5.4438-4.5059 0.47801-4.8311 5.7317-3.0917 4.3369-0.31405 2.8103-1.4445 1.8343-3.8862-0.50427-4.7324-2.0509-0.79942-5.0937 0.34314-6.2002 2.6376-2.2229 7.3422 3.4376 11.68 10.384 12.561z" style="fill:#50230a;"/></svg>