<svg xmlns="http://www.w3.org/2000/svg" viewBox="0 0 231 231"><path d="M33.83,33.83a115.5,115.5,0,1,1,0,163.34,115.49,115.49,0,0,1,0-163.34Z" style="fill:#FF9800;"/><path d="m115.5 51.75a63.75 63.75 0 0 0-10.5 126.63v14.09a115.5 115.5 0 0 0-53.729 19.027 115.5 115.5 0 0 0 128.46 0 115.5 115.5 0 0 0-53.729-19.029v-14.084a63.75 63.75 0 0 0 53.25-62.881 63.75 63.75 0 0 0-63.65-63.75 63.75 63.75 0 0 0-0.09961 0z" style="fill:#dbbc7f;"/><path d="m141.74 195a114.93 114.93 0 0 1 37.912 16.45l0.07 0.05c-1.17 0.79-2.3601 1.55-3.5601 2.29a115.55 115.55 0 0 1-120.95 0.21q-2.0001-1.23-4.0002-2.54a114.79 114.79 0 0 1 38.002-16.5 116.21 116.21 0 0 1 15.791-2.49v-14.57c1.32 0.22 2.6501 0.39 4.0002 0.51 2.0001 0.19 4.0002 0.28 6.1202 0.29a64.333 64.33 0 0 0 8.8804-0.62c0.67003-0.09 1.3401-0.2 2.0001-0.31v14.69a118 118 0 0 1 15.741 2.54z" style="fill:#fff;"/><path d="m79.292 212a3.4601 3.46 0 0 0 3.8902 5.07 3.3801 3.38 0 0 0 2.1001-1.61 3.4701 3.47 0 0 0-1.2801-4.72 3.4201 3.42 0 0 0-2.6201-0.34 3.5101 3.51 0 0 0-2.0901 1.6zm60.122 0.46a3.4901 3.49 0 0 0 1.21 4.7h0.06a3.4601 3.46 0 0 0 4.7202-1.27l0.07-0.13a3.4601 3.46 0 0 0-1.34-4.6 3.4601 3.46 0 0 0-2.5801-0.32 3.5301 3.53 0 0 0-2.1001 1.61zm9.8004 5.7 5.8602 5.87c-1.39 0.5-2.7901 1-4.2102 1.44l-4.4802-4.47a7.5203 7.52 0 0 1-1.9401 0.81 7.8303 7.83 0 0 1-6.0002-0.79 7.8703 7.87 0 0 1-2.9201-10.69v-0.07a7.8903 7.89 0 0 1 10.77-2.88l0.12 0.07a7.8603 7.86 0 0 1 2.7901 10.62v0.07zm-37.701-2.36-9.5004 9.51v4.9c-1.35-0.16-2.6801-0.33-4.0002-0.54v-6l0.58002-0.58 10.1-10.09a7.8703 7.87 0 1 1 2.8401 2.86zm7.3203-5.91a3.4601 3.46 0 1 0-1.6101 2.1 3.3801 3.38 0 0 0 1.6101-2.1zm-29.741 7.82 3.0901 3.1 0.59002 0.59v7.36c-1.3401-0.26-2.6801-0.55-4.0002-0.87v-4.84l-2.5101-2.51a7.5203 7.52 0 0 1-1.9401 0.81 7.8803 7.88 0 1 1 1.9101-14.43 7.8703 7.87 0 0 1 2.8901 10.75z" style="fill:#000;"/><path d="m41.835 75.131c-2.8674 12.582 1.2304 27.241 6.0238 39.031 0.25861 0.63658 0.51208 1.3075 0.79989 1.9683 0.71726 1.658 2.1184 3.9751 3.0038 3.9266 0.56895-0.0312 0.71637-1.5512 1.0228-3.1562 2.1988-19.097 8.8981-27.915 15.636-38.107 2.8783-4.0645 3.8616-7.2293 1.0644-9.9325-6.3236-3.5596-14.924-2.8574-21.367-0.67406-3.2312 1.4765-5.2427 3.4773-6.1842 6.9439zm125.65-8.5679c7.65-0.70616 19.714-0.1307 21.694 8.5679 1.455 6.4083 0.26915 17.747-1.0542 24.579-1.1961 5.3203-3.8066 14.231-7.8782 19.75-0.5565 0.44544-0.96888 0.13656-1.4159-1.1606-0.90692-3.0353-1.4298-7.8372-2.2556-10.727-3.4822-12.79-8.2195-21.875-14.429-29.94-5.5782-6.8415-4.2152-9.7207 5.3393-11.069z" style="fill:#efefef;"/><path d="m112.27 73.826c-18.585-7.5217-34.987-14.797-48.939 5.018-4.9752 7.083-3.7876 8.8056-4.9217 0.0749-1.637-12.476-4.7505-34.174 1.9259-45.194 7.6822-12.7 19.323-13.128 31.039-5.3818 10.796 7.7784 24.277 14.647 38.015 12.219 12.732-2.2576 15.835-7.7464 15.707-19.912-0.0215-2.6-0.0963-5.2106-0.2033-7.7999 13.631 3.9267 24.609 14.776 26.513 29.049 0.88804 6.6336 0.26749 12.722-1.9259 19.013-5.9702 17.108-30.119 20.896-45.74 16.841-3.9588-1.0378-7.6822-2.4181-11.47-3.9267z" style="fill:none;"/><path d="m83.527 103.98v10h10v-10h-10zm53.945 0v10h10v-10h-10z" style="fill:none;"/><path d="m56.621 94.906v11.688h5.3418v6.4922h5.3418v6.1055h5.3223v6.2324h26.846v-6.2324h5.3047v-6.1055h5.1445v-6.0039h11.154v6.0039h5.1446v6.1055h5.3066v6.2324h26.846v-6.2324h5.3203v-6.1055h5.3438v-6.4922h5.3418v-11.688z" style="fill:#000;"/><path d="m67.387 100.65v5.9394h5.1992v-5.9394zm5.1992 5.9394v6.4922h5.4238v-6.4922zm5.4238 0h5.1992v-5.9394h-5.1992zm5.1992 0v6.4922h5.4258v-6.4922zm5.4258 6.4922v6.1055h5.1426v-6.1055zm-10.625 0v6.1055h5.1445v-6.1055zm48.281-12.432v5.9394h5.1992v-5.9394zm5.1992 5.9394v6.4922h5.4238v-6.4922zm5.4238 0h5.1992v-5.9394h-5.1992zm5.1992 0v6.4922h5.4258v-6.4922zm5.4258 6.4922v6.1055h5.1426v-6.1055zm-10.625 0v6.1055h5.1445v-6.1055z" style="fill:#fff;"/><path d="m97.06 144.59a20.15 20.15 0 0 0 36.88 4.53z" style="fill:#fff;stroke-linecap:round;stroke-linejoin:round;stroke-width:2.9999px;stroke:#000;"/></svg>