<svg xmlns="http://www.w3.org/2000/svg" viewBox="0 0 231 231"><path d="M33.83,33.83a115.5,115.5,0,1,1,0,163.34,115.49,115.49,0,0,1,0-163.34Z" style="fill:#00a08d;"/><path d="m115.5 51.75a63.75 63.75 0 0 0-10.5 126.63v14.09a115.5 115.5 0 0 0-53.729 19.027 115.5 115.5 0 0 0 128.46 0 115.5 115.5 0 0 0-53.729-19.029v-14.084a63.75 63.75 0 0 0 53.25-62.881 63.75 63.75 0 0 0-63.65-63.75 63.75 63.75 0 0 0-0.09961 0z" style="fill:#b96438;"/><path d="m88.18 194.11c-4.2079 1.021-8.3545 2.2792-12.42 3.7695v26.072a115.5 115.5 0 0 0 79.48 0v-26.072c-4.0858-1.4904-8.2529-2.7486-12.48-3.7695v8.7051c0 9.3888-7.6112 17-17 17h-20.58c-9.3888 0-17-7.6112-17-17v-8.7051z" style="fill:#ff14e4;"/><path d="m30.622 70.381c2.0971-3.9374 4.6649-7.9604 7.6822-12.037 3.0172-4.0765 6.0987-7.6929 9.2229-10.817l22.897 22.897c-4.4402 4.4403-8.2278 9.5439-11.213 15.14z" style="fill:#dd104f;"/><path d="m160.58 70.423 22.907-22.897c3.1242 3.1242 6.2056 6.7406 9.2229 10.817 3.0065 4.0765 5.5744 8.0994 7.6715 12.037l-28.578 15.182c-2.9851-5.5958-6.7727-10.689-11.224-15.14z" style="fill:#dd104f;"/><path d="m92.411 15.247c3.8197-0.87736 7.6715-1.5407 11.534-1.9794 4.0765-0.46007 7.9282-0.69546 11.555-0.69546 1.53 0 3.1563 0.0428 4.8682 0.1391l1.851 22.255 5.767-21.57c3.1028 0.37449 6.0666 0.86666 8.8912 1.4658l-10.55 49.763c-1.9259-0.41729-3.702-0.70617-5.3176-0.87736-1.423-0.14979-3.2633-0.22468-5.5102-0.22468-2.2362 0-4.237 0.10699-5.981 0.29958-1.9473 0.22469-3.8732 0.55636-5.767 0.99504z" style="fill:#f73b6c;"/><path d="m92.411 15.247c1.9152-0.43869 4.023-0.84526 6.3233-1.2304 2.065-0.34238 4.1514-0.62057 6.2698-0.84525l5.1785 50.565c-1.0913 0.10699-2.1827 0.25679-3.2954 0.43868-0.86665 0.14979-1.9152 0.36378-3.1349 0.64196z" style="fill:#dd104f;"/><path d="m70.959 94.985h35.031c2.4086 1e-5 4.3612 1.9523 4.3612 4.3606l-2.5864 17.511c-0.3515 2.3799-1.7218 4.3606-3.8457 4.3606h-30.9c-2.1239-1e-5 -3.8457-1.9523-3.8457-4.3606l-2.5864-17.511c1e-5 -2.4082 1.9526-4.3606 4.3612-4.3606z" style="fill:#9ff3ff;opacity:0.96;stroke-linecap:round;stroke-linejoin:round;stroke-width:3.0045px;stroke:#000;"/><path d="m160.05 94.985h-35.031c-2.4086 1e-5 -4.3612 1.9523-4.3612 4.3606l2.5864 17.511c0.35149 2.3799 1.7218 4.3606 3.8457 4.3606h30.9c2.1239-1e-5 3.8457-1.9523 3.8457-4.3606l2.5864-17.511c-1e-5 -2.4082-1.9526-4.3606-4.3612-4.3606z" style="fill:#9ff3ff;opacity:0.96;stroke-linecap:round;stroke-linejoin:round;stroke-width:3.0045px;stroke:#000;"/><path d="m90.607 102.35a4.6337 4.6332 0 1 0 4.6892 4.6337 4.6337 4.6332 0 0 0-4.6892-4.6337zm49.72 0a4.6337 4.6332 0 1 0 4.6444 4.6337 4.6337 4.6332 0 0 0-4.6444-4.6337z" style="fill:#2f508a;"/><path d="m70.66 94.985h-11.775" style="fill:none;stroke-linecap:round;stroke-linejoin:round;stroke-width:3.0045px;stroke:#000;"/><path d="m172.13 94.985h-19.484" style="fill:none;stroke-linecap:round;stroke-linejoin:round;stroke-width:3.0045px;stroke:#000;"/><path d="m109.32 106.2c4.2045-2.427 9.3036-1.913 12.353-0.0258" style="fill:none;stroke-linecap:round;stroke-linejoin:round;stroke-width:3.0045px;stroke:#000;"/><path d="m148.33 109.79-5.7626-8.2324" style="fill:none;stroke-linecap:round;stroke-linejoin:round;stroke-width:4;stroke:none;"/><path d="m156.27 105-2.403-3.4328" style="fill:none;stroke-linecap:round;stroke-linejoin:round;stroke-width:4;stroke:none;"/><path d="m82.748 114.34-8.9489-12.784" style="fill:none;stroke-linecap:round;stroke-linejoin:round;stroke-width:4;stroke:none;"/><path d="m91.408 109.79-5.7626-8.2324" style="fill:none;stroke-linecap:round;stroke-linejoin:round;stroke-width:4;stroke:none;"/><path d="m115.5 131c-17.71 0.65-27 9.41-29.61 23.69-1 5.62-0.43 7.06 2.76 7.17 22.76 0.76 22.23 18.21 26.85 18.89 4.62-0.68 4.09-18.13 26.85-18.89 3.19-0.11 3.79-1.55 2.76-7.17-2.62-14.28-11.9-23-29.61-23.69zm0 29.31c-10 0-18-5-18-11.17s8.08-11.17 18-11.17 18 5 18 11.17-8.08 11.17-18 11.17z" style="fill:#6b0000;"/><path d="m123.54 148.46a11.53 11.53 0 0 1-16.09 0" style="fill:none;stroke-linecap:round;stroke-linejoin:round;stroke-width:6.7998px;stroke:#000;"/></svg>