<svg xmlns="http://www.w3.org/2000/svg" viewBox="0 0 231 231"><path d="M33.83,33.83a115.5,115.5,0,1,1,0,163.34,115.49,115.49,0,0,1,0-163.34Z" style="fill:#8acf00;"/><path d="m115.5 51.75a63.75 63.75 0 0 0-10.5 126.63v14.09a115.5 115.5 0 0 0-53.729 19.027 115.5 115.5 0 0 0 128.46 0 115.5 115.5 0 0 0-53.729-19.029v-14.084a63.75 63.75 0 0 0 53.25-62.881 63.75 63.75 0 0 0-63.65-63.75 63.75 63.75 0 0 0-0.09961 0z" style="fill:#f5d4a6;"/><path d="m141.75 195a114.79 114.79 0 0 1 38 16.5 115.53 115.53 0 0 1-128.46 0 114.79 114.79 0 0 1 38-16.5 115.77 115.77 0 0 1 15.71-2.53v-14.09a63.8 63.8 0 0 0 21 0v14.09a116.6 116.6 0 0 1 15.75 2.53z" style="fill:#000;"/><path d="m60.984 205.66 6.2675 2.2051 3.4074-6.819 2.8018-1.1353-3.9911 7.9907 27.222-3.0857 3.2541-11.739 2.1451-0.2692-3.2833 11.819 20.393-1.6011-14.191-15.945v-2.4379l17.606-5.7274 3.3855-0.473v1.47l-19.167 6.2295 14.731 16.542 19.839-7.7432 3.3636 0.8223-21.371 8.34 20.532 13.842 2.6777-21.687 1.9481 0.5604-2.7726 22.378 0.0584 0.0364 8.5075 4.9923-2.4807 0.85145-6.4718-3.7916-1.2987 6.0622-2.1524 0.53125 1.3425-6.2804-17.037 8.8348-5.0271 0.35661 21.59-11.193-20.962-14.133-7.5006 25.457-2.0721-0.0364 7.6392-25.915-21.05 1.652 9.0109 24.052-1.4155-0.0946-0.49615-0.0437-0.073-7e-3 -0.2043-0.0145-8.3688-22.342-10.127 19.242-1.9846-0.52399 10.514-19.962-26.04 2.9547 13.425 16.418-3.4438-1.0625-12.083-14.781-8.1645 5.9675-1.9043-1.077 8.128-5.9385-6.9898-2.4598 2.3348-1.2881zm92.509-7.2556 14.228 20.093-1.8095 0.89514-15.614-22.043z" style="fill:#fff;"/><path d="m115.5 51.75c-38.702 5.3101-54.215 18.038-59.863 35.101" style="fill:none;stroke-linecap:round;stroke-linejoin:round;stroke-width:12;stroke:#32393f;"/><path d="m115.5 51.75c-7.8393 3.6337-5.5974 16.583-14.341 23.452" style="fill:none;stroke-linecap:round;stroke-linejoin:round;stroke-width:12;stroke:#32393f;"/><path d="m111.35 48.614c-22.634-6.9181-42.457-3.1988-55.733 2.5105" style="fill:none;stroke-linecap:round;stroke-linejoin:round;stroke-width:12;stroke:#32393f;"/><path d="m115.47 54.008c0.1965-6.7774-0.1436-26.309 0.05-38.184" style="fill:none;stroke-linecap:round;stroke-linejoin:round;stroke-width:12;stroke:#32393f;"/><path d="m68.874 28.177c34.115-3.382 41.987 13.321 45.17 19.602" style="fill:none;stroke-linecap:round;stroke-linejoin:round;stroke-width:12;stroke:#32393f;"/><path d="m116.49 48.69c2.8876-6.3019 10.358-21.518 43.469-22.326" style="fill:none;stroke-linecap:round;stroke-linejoin:round;stroke-width:12;stroke:#32393f;"/><path d="m116.92 51.766c1.5094 6.3991 3.4988 15.595 10.088 23.058" style="fill:none;stroke-linecap:round;stroke-linejoin:round;stroke-width:12;stroke:#32393f;"/><path d="m113.81 51.532c22.03-7.8674 46.709-7.3614 59.444-2.0465" style="fill:none;stroke-linecap:round;stroke-linejoin:round;stroke-width:12;stroke:#32393f;"/><path d="m114.53 52.278c36.226 4.8583 52.414 17.092 59.373 33.347" style="fill:none;stroke-linecap:round;stroke-linejoin:round;stroke-width:12;stroke:#32393f;"/><path d="m55.637 86.851c-4.1213 12.452-2.9877 27.213-1.777 43.084" style="fill:none;stroke-linecap:round;stroke-linejoin:round;stroke-width:12;stroke:#32393f;"/><path d="m55.614 51.124c-13.422 5.5019-21.908 16.409-24.712 28.774-1.8322 8.4632-1.9809 18.156-1.6096 28.486" style="fill:none;stroke-linecap:round;stroke-linejoin:round;stroke-width:12;stroke:#32393f;"/><path d="m173.26 49.486c24.917 10.399 26.707 36.537 27.209 59.62" style="fill:none;stroke-linecap:round;stroke-linejoin:round;stroke-width:12;stroke:#32393f;"/><path d="m173.9 85.625c5.4042 12.625 5.2413 27.675 4.5745 43.58" style="fill:none;stroke-linecap:round;stroke-linejoin:round;stroke-width:12;stroke:#32393f;"/><path d="m53.86 129.93c1.293 16.951 2.6738 35.169-2.1664 53.193" style="fill:none;stroke-linecap:round;stroke-linejoin:round;stroke-width:12;stroke:#32393f;"/><path d="m29.292 108.38c0.6173 17.177 2.6722 36.119 0.8158 54.108" style="fill:none;stroke-linecap:round;stroke-linejoin:round;stroke-width:12;stroke:#32393f;"/><path d="m200.47 109.11c0.3586 18.529-1.2751 36.94 1.9231 48.985" style="fill:none;stroke-linecap:round;stroke-linejoin:round;stroke-width:12;stroke:#32393f;"/><path d="m178.48 129.2c-0.7279 17.362-2.0563 35.743 2.6011 53.099" style="fill:none;stroke-linecap:round;stroke-linejoin:round;stroke-width:12;stroke:#32393f;"/><line x1="85.29" x2="85.29" y1="98.73" y2="109.79" style="fill:none;stroke-linecap:round;stroke-linejoin:round;stroke-width:8.7999px;stroke:black;"/><path d="m108.28 72.16h62.18c9.19 0 13.32 1.21 14.71 8.52 3.61 18.95 2.2 33.49-0.44 43.75a65.07 65.07 0 0 1-5.89 14.78 73.52 73.52 0 0 1-7.06 10.26c-1.8 2.27-5.17 1.21-4.19-1.09 0.14-0.47 0.27-1 0.4-1.48a14.29 14.29 0 0 0 0.52-6.62 12.52 12.52 0 0 0-3.88-6.3c-4.17-3.9-12.81-8.71-32.53-13.66-6.4-1.6-10.69-2.24-11.76-2.79a7.08 7.08 0 0 1-3.85-6.31v-9c0-2.39 0.18-4.55-1.56-6.57s-4.16-2.13-6.65-2.14a6 6 0 0 1-6-6v-9.35a6 6 0 0 1 6-6z" style="fill:#1df7ff;opacity:0.64;"/><path d="m135.9 98.73v9.27m15.22-9.29v9.29" style="fill:none;stroke-linecap:round;stroke-linejoin:round;stroke-width:7.7998px;stroke:#fcff2c;"/><path d="m118.05 148.38c-1.5064 0.59192-2.595 2.0264-2.6191 3.9863-0.0574 1.3977 0.53421 3.5611 3.6758 5.7949 8.0544 4.9446 21.507 3.6862 21.255-7.1658-4.664 4.8219-10.021 5.6377-14.773 0.73907-1.2328-1.1599-2.3694-2.4032-3.9294-3.1408-1.0946-0.50424-2.2257-0.61071-3.6096-0.21337z" style="fill:#50230a;"/><path d="m133.61 154.93c3.0731-0.48816 5.5702-2.8457 5.4438-4.5059-0.47801-4.8311-5.7317-3.0917-4.3369-0.31405-2.8103-1.4445-1.8343-3.8862 0.50427-4.7324 2.0509-0.79942 5.0937 0.34314 6.2002 2.6376 2.2229 7.3422-3.4376 11.68-10.384 12.561z" style="fill:#50230a;"/><path d="m112.81 148.38c1.5064 0.59192 2.595 2.0264 2.6191 3.9863 0.0574 1.3977-0.53421 3.5611-3.6758 5.7949-8.0544 4.9446-21.507 3.6862-21.255-7.1658 4.664 4.8219 10.021 5.6377 14.773 0.73907 1.2328-1.1599 2.3694-2.4032 3.9294-3.1408 1.0946-0.50424 2.2257-0.61071 3.6096-0.21337z" style="fill:#50230a;"/><path d="m97.252 154.93c-3.0731-0.48816-5.5702-2.8457-5.4438-4.5059 0.47801-4.8311 5.7317-3.0917 4.3369-0.31405 2.8103-1.4445 1.8343-3.8862-0.50427-4.7324-2.0509-0.79942-5.0937 0.34314-6.2002 2.6376-2.2229 7.3422 3.4376 11.68 10.384 12.561z" style="fill:#50230a;"/></svg>