<svg xmlns="http://www.w3.org/2000/svg" viewBox="0 0 231 231"><path d="M33.83,33.83a115.5,115.5,0,1,1,0,163.34,115.49,115.49,0,0,1,0-163.34Z" style="fill:#00a08d;"/><path d="m115.5 51.75a63.75 63.75 0 0 0-10.5 126.63v14.09a115.5 115.5 0 0 0-53.729 19.027 115.5 115.5 0 0 0 128.46 0 115.5 115.5 0 0 0-53.729-19.029v-14.084a63.75 63.75 0 0 0 53.25-62.881 63.75 63.75 0 0 0-63.65-63.75 63.75 63.75 0 0 0-0.09961 0z" style="fill:#f5d4a6;"/><path d="m141.89 195a114.79 114.79 0 0 1 38 16.5 115.55 115.55 0 0 1-128.47 0 114.79 114.79 0 0 1 38-16.5l15.75 15.75h21z" style="fill:#0D204A;"/><path d="m146.4 196.14-17.4 17.44-1.17 1.17h-24.34l-1.18-1.17-17.43-17.44c1.49-0.41 3-0.79 4.51-1.14l4.67-1 12.74 12.74h17.69l12.73-12.74 4.67 1c1.52 0.35 3 0.73 4.51 1.14z" style="fill:#00ffdf;"/><path d="m169.65 90.998c3.137 11.94 4.9371 36.484-3.4118 58.213l5.129 3.1164c10.044-15.199 14.959-39.163 13.943-61.33z" style="fill:none;"/><path d="m45.081 90.989c-0.88085 4.9304-0.87534 14.953-0.15027 21.75 2.1318 19.98 16.671 42.505 16.671 42.505l5.7352-4.4331s-13.244-31.348-6.0571-52.751c0.52108-1.5517 0.95592-2.916 1.3462-4.1835z" style="fill:none;"/><path d="m117 3.4883c-8.2136-0.19887-19.13 7.933-18.494 9.3516 1.6214 3.6186 11.176 22.55 11.889 23.963h10.148c2.6022-6.3102 11.32-26.531 11.32-26.531s-4.1382-4.138-12.416-6.4375c-0.77605-0.21556-1.5976-0.32513-2.4473-0.3457z" style="fill:none;"/><path d="m115.95 4.5428c-3.1563 0-6.3123 0.57462-9.2165 1.715-5.8084 2.2817-10.532 6.808-12.779 12.245v-5e-3c-1.8166 4.397-2.0233 9.3441-0.58058 13.857 0.69352 2.1687 1.7693 4.2296 3.1533 6.0968h38.893c0.71032-0.95769 1.3441-1.9641 1.8787-3.0144 2.6811-5.2673 2.9296-11.542 0.67253-16.975-2.257-5.4337-6.9893-9.9522-12.802-12.224-2.9064-1.1335-6.0633-1.6987-9.2196-1.6956z" style="fill:none;"/><path d="m92.512 28.125c0.13387 1.4318 0.41877 2.8511 0.85962 4.2306 1.4429 4.5127 4.5278 8.5654 8.6411 11.353 4.1135 2.7873 9.2311 4.2913 14.336 4.2165 5.1052-0.0764 10.168-1.7333 14.181-4.6419 2.8754-2.0834 5.2132-4.7932 6.7665-7.8447 1.2005-2.3586 1.9085-4.9188 2.127-7.5156-15.037-2.6407-31.421-3.4671-46.912 0.20253z" style="fill:none;"/><path d="m34.426 90.63c14.714 4.0779 22.683 6.4085 45.254 7.4257 2.5318-18.185 4.6689-28.672 10.023-38.352 3.2025 13.403 3.8346 25.22 2.9106 42.253l11.172-0.23161c1.4706-11.886 3.8989-29.213 2.1636-42.021 10.416 12.631 11.373 23.624 13.077 39.726 30.174-0.76004 59.808-4.5121 77.845-10.128-10.76-38.608-41.475-55.66-80.38-56.104-38.182-0.45134-74.543 22.405-82.065 57.432z" style="fill:#ffc107;"/><path d="m83.739 83.92h63.533a19.101 19.1 0 0 1 19.051 19 19.111 19.11 0 0 1-19.051 19h-63.533a19.091 19.09 0 0 1-19.001-19 19.091 19.09 0 0 1 19.001-19z" style="fill:#000;"/><path d="m140.23 93.54a9.3804 9.38 0 1 0 9.3804 9.38 9.3804 9.38 0 0 0-9.3804-9.38zm-49.402 0a9.3804 9.38 0 1 0 9.3804 9.38 9.3904 9.39 0 0 0-9.3804-9.38z" style="fill:none;"/><rect x="79.795" y="98.627" width="71.471" height="8.5859" ry="4.2929" style="fill:#00FFFF;"/><path d="m97.06 144.59a20.15 20.15 0 0 0 36.88 4.53z" style="fill:#fff;stroke-linecap:round;stroke-linejoin:round;stroke-width:2.9999px;stroke:#000;"/></svg>