<svg xmlns="http://www.w3.org/2000/svg" viewBox="0 0 231 231"><path d="M33.83,33.83a115.5,115.5,0,1,1,0,163.34,115.49,115.49,0,0,1,0-163.34Z" style="fill:#bcf700;"/><path d="m115.5 51.75a63.75 63.75 0 0 0-10.5 126.63v14.09a115.5 115.5 0 0 0-53.729 19.027 115.5 115.5 0 0 0 128.46 0 115.5 115.5 0 0 0-53.729-19.029v-14.084a63.75 63.75 0 0 0 53.25-62.881 63.75 63.75 0 0 0-63.65-63.75 63.75 63.75 0 0 0-0.09961 0z" style="fill:#85492C;"/><path d="m141.89 195a114.79 114.79 0 0 1 38 16.5 115.55 115.55 0 0 1-128.47 0 114.79 114.79 0 0 1 38-16.5l15.75 15.75h21z" style="fill:#0D204A;"/><path d="m146.4 196.14-17.4 17.44-1.17 1.17h-24.34l-1.18-1.17-17.43-17.44c1.49-0.41 3-0.79 4.51-1.14l4.67-1 12.74 12.74h17.69l12.73-12.74 4.67 1c1.52 0.35 3 0.73 4.51 1.14z" style="fill:#00ffdf;"/><path d="m156.1 15.879c-0.38556 5.3015-1.7049 9.4762-3.6602 12.76-0.41226 23.773-9.2343 35.229-15.154 42.797l15.062-4.6641c-0.66253 2.8135-2.4628 7.156-0.34766 12.137 1.6334-2.3144 7.9395-5.807 13-3.3477-0.43442 3.5532-0.95271 7.094-1.4512 10.639l8.9648 0.85937c0.83453 3.8792 0.51719 9.3449-0.59961 11.736l5.5508 2.0098c0.20764 2.7646 0.10001 5.4906-0.74609 8.875 8.4545-1.7225 14.213-4.3896 19.641-13.188 2.8639-4.7524 4.9018-10.483 4.7305-17.242-4.1612 4.916-9.6484 7.2485-15.26 10.109 6.507-11.065 8.8648-22.768 8.1367-30.58-7.3456 10.251-11.649 13.06-19.918 16.9 1.2386-11.4 5.5249-18.582 12.461-27.27-11.392-1.3025-16.301 1.4749-24.891 6.4395 4.5466-14.036 2.2208-26.679-5.5195-38.971zm-117.76 28.682c9.3378 3.6366 19.581 9.0234 21.129 18.549-7.6182 0.0414-14.897-3.5072-20.242-7.1894-0.15967 8.2309 2.8451 12.252 6.7734 19.08-7.2127 1.6129-12.084 4.8315-17.471 9.4805 7.2948-0.15715 12.299-1.0502 16.891 4.2793-6.0512 5.0164-11.99 10.79-11.99 19.24 9.257-6.1688 12.495-5.9486 21.137-2.2012 1.2906-8.0996 2.3978-14.872 2.7869-16.435 2.4719-0.73247 3.5247-0.94807 5.9221-1.2938-2.1556-7.4281 1.0996-9.5176 2.4141-11.6l7.543 1.5059c-3.9093-6.1699 2.6565-12.483 7.1445-15.51-4.4474-7.2082-5.6649-11.558-7.377-16.797-11.198-8.2947-23.895-6.2742-34.66-1.1094z" style="fill:#ff90f4;"/><path d="m101.9 7.6408c-10.047 6.2416-12.441 28.646-12.131 33.289-6.9249-5.8258-7.8992-13.75-7.7695-19.203-9.6235 6.0158-10.666 14.421-9 23.943 1.1061 5.1411 2.3972 10.461 7.377 16.797 2e-3 -1e-3 4e-3 -3e-3 6e-3 -4e-3 2.7742 2.8742 5.4644 5.5941 8.3477 8.3574 0.41187-6.971 0.45449-13.622 7.1856-15.824 3.9532 2.8169 7.4123 5.9388 11.084 9.1035l10.559-10.25c5.6447 3.961 5.4531 6.5652 6.5215 14.104 2.153-1.7546 8.719-9.0037 15.844-10.139 0.98706 4.1261-0.99388 10.308-2.6387 13.621 0 0 14.32-11.846 15.195-27.971 0.33968-6.2599 0.2237-11.146-0.041-14.826-3.2125 5.5652-8.7118 8.7799-13.789 10.15-4.2715-9.2486-2.4785-21.435-0.48047-29.309-12.21 3.0195-20.932 18.337-22.172 25.07-9.2678-7.397-13.605-16.146-14.098-26.91z" style="fill:#ff90f4;"/><path d="m86.851 100.39a4.94 4.94 0 1 0 4.9297 5 5 5 0 0 0-4.9297-5zm57.221 0a4.94 4.94 0 1 0 4.9394 4.9394 4.94 4.94 0 0 0-4.9394-4.9394z" style="fill:#000;"/><path d="m86.207 89.365c-25.504 0-21.503 6.8561-21.035 19.596 0.80177 18.121 17.763 16.514 21.201 16.639 14.758-0.041 20.518-8.227 22.951-22.932 1.8166-10.731-9.251-13.174-23.117-13.303zm58.598 0c-13.866 0.1284-24.936 2.5717-23.119 13.303 2.4332 14.705 8.1936 22.891 22.951 22.932 3.4383-0.125 20.399 1.4828 21.201-16.639 0-18.965-0.47958-19.596-21.033-19.596z" style="fill:#ff23fa;opacity:0.39;"/><path d="m169.87 90.255a0.51 0.51 0 0 0-0.43991-0.52 167.64 167.64 0 0 0-22.6-1.6801c-12 0-27.47 3.7601-30.17 3.7601h-2.4c-1.2499 0-5.29-0.80996-10.45-1.6801a124.35 124.35 0 0 0-19.72-2.08 166.18 166.18 0 0 0-19.31 1.24c-1.56 0.17999-2.69 0.35009-3.2899 0.44009a0.51 0.51 0 0 0-0.44007 0.52l-0.091 6.4501a0.57 0.57 0 0 0 0.33012 0.52l0.73994 0.23992c1.08 0.41992 1.0001 19.85 6.78 24.71 3.4401 2.8599 6.51 4.4899 19.42 4.4899 7.4699 0 12.17-1.9999 16.63-8 3.21-4.32 6.0999-14.55 6.0999-14.55 0.82006-4.07 3.7702-4.52 4.43-4.5801h0.12068c0.11078 0 3.66 0.0593 4.57 4.5801 0 0 2.8599 10.22 6.0699 14.54 4.4601 5.9999 9.1601 8 16.63 8 12.91 0 16-1.63 19.42-4.4901 5.7898-4.86 5.6998-24.29 6.78-24.71l0.73994-0.23993a0.57 0.57 0 0 0 0.32996-0.52l-0.12068-6.4501zm-65 23c-1.9101 4.5-6.8 10.29-13.7 10.64-20.7 0.99985-21.65-4.7401-23-9.3201a31.45 31.45 0 0 1-1.2099-13.18c0.53997-4.5799 1.7-7.2699 3.7801-8.6201a9.3 9.3 0 0 1 4.3499-1.51 85.07 85.07 0 0 1 11.4-0.52 59.23 59.23 0 0 1 9.2099 0.69999c7.37 1.2 12.35 3.7001 12.35 6.1601a46.12 46.12 0 0 1-3.23 15.64zm58 1.3201c-1.34 4.5799-2.29 10.36-23 9.3201-6.91-0.3501-11.81-6.1401-13.71-10.64a46.35 46.35 0 0 1-3.22-15.64c0-3.39 9.43-6.8599 21.56-6.8599 12.13 0 14 0.89996 15.75 1.9999 2.08 1.3502 3.2398 4 3.77 8.6201a31.23 31.23 0 0 1-1.1601 13.17z" style="fill:#000;"/><path d="m100.35 143.85a7.67 7.67 0 0 0 7.58 7.7v0a7.66 7.66 0 0 0 7.57-7.7 7.66 7.66 0 0 0 7.57 7.7v0a7.67 7.67 0 0 0 7.58-7.7" style="fill:none;stroke-linecap:round;stroke-linejoin:round;stroke-width:6.3998px;stroke:#000;"/></svg>