<svg xmlns="http://www.w3.org/2000/svg" viewBox="0 0 231 231"><path d="M33.83,33.83a115.5,115.5,0,1,1,0,163.34,115.49,115.49,0,0,1,0-163.34Z" style="fill:#fc0065;"/><path d="m115.5 51.75a63.75 63.75 0 0 0-10.5 126.63v14.09a115.5 115.5 0 0 0-53.729 19.027 115.5 115.5 0 0 0 128.46 0 115.5 115.5 0 0 0-53.729-19.029v-14.084a63.75 63.75 0 0 0 53.25-62.881 63.75 63.75 0 0 0-63.65-63.75 63.75 63.75 0 0 0-0.09961 0z" style="fill:#7b401e;"/><path d="m141.75 195a114.79 114.79 0 0 1 38 16.5 115.53 115.53 0 0 1-128.46 0 114.79 114.79 0 0 1 38-16.5l13.85 13.85v-1.2h17.86v3.1h5z" style="fill:#033c58;"/><polygon points="115.36 207.65 123.37 224.2 148.3 196.86 143.08 189.95" style="fill:#fff;"/><polygon points="115.36 207.65 107.35 224.2 82.42 196.86 87.63 189.95" style="fill:#fff;"/><path d="m69.834 33.826c-8.2001-0.0626-16.444 2.6753-23.152 7.7038-8.5298 6.9899-12.159 19.61-12.329 32.68-0.2041 15.476 1.6092 34.752 1.7464 51.915 0.10414 13.047 0.53485 25.984-2.9197 33.995-2.4994 5.81-9.0955 9.6006-16.196 12.311 7.9599 2.8301 25.009 2.8094 33.58 1.5393 10.8-1.59 17.238-6.5294 17.159-22.699-0.0911-15.93-1.3894-29.23-1.559-45.83-0.3208-11.983-1.569-24.291 4.9774-33.987 4.2139-6.1265 10.452-10.521 17.116-13.588 3.9292-1.8575 8.0384-3.3083 12.263-4.3297-6.8718-13.574-18.732-19.618-30.687-19.709z" style="fill:#00eaff;"/><path d="m90.8 76.246c11.918-17.125 31.996-23.218 49.743-17.488 11.81 3.9496 20.692 13.389 22.313 28.237 0.51051 6.2098 0.63413 12.445 0.37007 18.67-0.23973 11.2-0.72946 23.82-1.0995 34.08-0.82005 22.43 0.0593 35.1 24.589 36.3 8.5635 0.32122 17.137-0.22845 25.59-1.6405h-0.0198c-10.74-3.3799-17.98-15.609-19.3-26.289-1.29-10.41-0.6098-23.43-0.7898-38.091-0.1701-14.96 1.0398-29.819 0.28008-42.089-1.414-22.777-14.947-38.505-34.126-45.152-27.813-7.35-51.083 0.091-61.672 17.343-5.4698 8.9112-7.7413 20.07-5.8788 36.121z" style="fill:none;"/><path d="m170.25 100c1.69 9.62-4.79 29.23-22.4 29.23-6.81 0-15-3.66-20.23-10-4.34-5.33-7.56-12.87-6.2-19.45 1.63-7.89 7.07-11.45 14.67-12.92a68.16 68.16 0 0 1 12.52-1c10.77 0 19.78 3.61 21.64 14.22z" style="fill:#00b5b4;stroke-width:3.99px;stroke:#000;"/><path d="m60.75 100c-1.69 9.62 4.79 29.23 22.4 29.23 6.81 0 15-3.66 20.23-10 4.34-5.33 7.56-12.87 6.2-19.45-1.63-7.89-7.07-11.45-14.67-12.92a68.16 68.16 0 0 0-12.52-1c-10.77 0-19.78 3.61-21.64 14.22z" style="fill:#00b5b4;stroke-width:3.99px;stroke:#000;"/><line x1="100.2" x2="130.8" y1="87.92" y2="87.92" style="fill:none;stroke-linecap:round;stroke-linejoin:round;stroke-width:3.99px;stroke:#000;"/><path d="m109.87 101.73c0-2.59 2.52-4.69 5.63-4.69s5.63 2.1 5.63 4.69" style="fill:none;stroke-width:3.99px;stroke:#000;"/><path d="m115.68 160.64c7.08 0 13.11-4.93 15.46-11.84a2.14 2.14 0 0 0-1.51-2.6101 2.3 2.3 0 0 0-0.73995-0.0593h-26.42a2.12 2.12 0 0 0-2.31 1.9099 1.85 1.85 0 0 0 0.0593 0.73995c2.3401 6.9301 8.3802 11.86 15.46 11.86z" style="fill:#ff0000;"/></svg>